<?xml version="1.0" encoding="UTF-8"?>
<svg width="30px" height="30px" viewBox="0 0 30 30" version="1.1" xmlns="http://www.w3.org/2000/svg">
    <!-- Generator: Sketch 53.2 (72643) - https://sketchapp.com -->
    <title>成功</title>
    <desc>Created with Sketch.</desc>
    <g id="交易银行2.0" stroke="none" stroke-width="1" fill="none" fill-rule="evenodd">
        <g id="视觉规范" transform="translate(-124.000000, -1817.000000)">
            <rect fill="#FFFFFF" x="0" y="0" width="1200" height="2800"></rect>
            <g id="04-图标／标签" transform="translate(51.000000, 1483.000000)" fill="#6BAF1B" fill-rule="nonzero">
                <g id="图标" transform="translate(73.000000, 93.000000)">
                    <g id="成功-失败-提醒" transform="translate(0.000000, 241.000000)">
                        <path d="M15.0002051,0 C6.71569336,0 0,6.71569336 0,15.0002637 C0,23.2843359 6.71569336,30 15.0002051,30 C23.2843066,30 30,23.2843359 30,15.0002637 C30,6.71569336 23.2843066,0 15.0002051,0 M23.5979933,11.3396645 L14.7058828,20.2317751 C14.488943,20.448738 14.2044113,20.5571848 13.9200873,20.5571848 C13.6354402,20.5571848 13.3510239,20.448738 13.1339457,20.2317751 L8.0210496,15.1187867 C7.58714688,14.6846533 7.58714688,13.9808677 8.0210496,13.546965 C8.45515993,13.1127162 9.15908399,13.1127162 9.59305591,13.546965 L13.9200642,17.8738579 L22.0260793,9.76775051 C22.459982,9.33366324 23.1638599,9.33366324 23.5979933,9.76775051 C24.0321037,10.2017686 24.0321037,10.9055311 23.5979933,11.3396645" id="Shape-Copy-2"></path>
                    </g>
                </g>
            </g>
        </g>
    </g>
</svg>
