<?xml version="1.0" encoding="UTF-8"?>
<svg width="30px" height="30px" viewBox="0 0 30 30" version="1.1" xmlns="http://www.w3.org/2000/svg">
    <!-- Generator: Sketch 53.2 (72643) - https://sketchapp.com -->
    <title>失败</title>
    <desc>Created with Sketch.</desc>
    <g id="交易银行2.0" stroke="none" stroke-width="1" fill="none" fill-rule="evenodd">
        <g id="视觉规范" transform="translate(-164.000000, -1817.000000)">
            <rect fill="#FFFFFF" x="0" y="0" width="1200" height="2800"></rect>
            <g id="04-图标／标签" transform="translate(51.000000, 1483.000000)">
                <g id="图标" transform="translate(73.000000, 93.000000)" fill="#FE4D55">
                    <g id="成功-失败-提醒" transform="translate(0.000000, 241.000000)">
                        <path d="M55,0 C46.7162354,0 40,6.71623535 40,15 C40,23.2837646 46.7162354,30 55,30 C63.2837646,30 70,23.2837646 70,15 C70,6.71623535 63.2837646,0 55,0 L55,0 Z M61.1957661,21.0961382 C60.7696913,21.522213 60.0770211,21.522213 59.6509463,21.0961382 L55.0165722,16.4617215 L50.3821982,21.0961382 C49.9561234,21.522213 49.2634531,21.522213 48.8373784,21.0961382 C48.4113036,20.6700634 48.4113036,19.9773932 48.8373784,19.5513184 L53.4717951,14.9169443 L48.8373784,10.2825702 C48.4113036,9.85649546 48.4113036,9.16382521 48.8373784,8.73775043 C49.2634531,8.31167565 49.9561234,8.31167565 50.3821982,8.73775043 L55.0165722,13.3721672 L59.6509463,8.73775043 C60.0770211,8.31167565 60.7696913,8.31167565 61.1957661,8.73775043 C61.6218409,9.16382521 61.6218409,9.85649546 61.1957661,10.2825702 L56.5613494,14.9169443 L61.1957661,19.5513184 C61.6218409,19.9773932 61.6218409,20.6700634 61.1957661,21.0961382 Z" id="Icon/ic_pars_fail-Copy-3"></path>
                    </g>
                </g>
                <g id="密码" transform="translate(115.000000, 333.000000)"></g>
                <g id="密码" transform="translate(115.000000, 363.000000)"></g>
            </g>
        </g>
    </g>
</svg>
