<?xml version="1.0" encoding="UTF-8"?>
<svg width="30px" height="30px" viewBox="0 0 30 30" version="1.1" xmlns="http://www.w3.org/2000/svg">
    <!-- Generator: Sketch 53.2 (72643) - https://sketchapp.com -->
    <title>提醒</title>
    <desc>Created with Sketch.</desc>
    <g id="交易银行2.0" stroke="none" stroke-width="1" fill="none" fill-rule="evenodd">
        <g id="视觉规范" transform="translate(-204.000000, -1817.000000)">
            <rect fill="#FFFFFF" x="0" y="0" width="1200" height="2800"></rect>
            <g id="04-图标／标签" transform="translate(51.000000, 1483.000000)" fill="#FEA20B">
                <g id="图标" transform="translate(73.000000, 93.000000)">
                    <g id="成功-失败-提醒" transform="translate(0.000000, 241.000000)">
                        <path d="M95,30 C86.7157288,30 80,23.2842712 80,15 C80,6.71572875 86.7157288,0 95,0 C103.284271,0 110,6.71572875 110,15 C110,23.2842712 103.284271,30 95,30 Z M93.7911015,20.4740358 C93.5189241,20.7347973 93.391908,21.0700622 93.391908,21.4798305 C93.391908,21.8895987 93.5189241,22.2248636 93.7911015,22.4856252 C94.0632789,22.7463867 94.3898918,22.8953934 94.7890854,22.8953934 C95.1882789,22.8953934 95.5148918,22.7650126 95.7870693,22.504251 C96.0592467,22.2434894 96.204408,21.8895987 96.204408,21.4798305 C96.204408,21.0700622 96.0592467,20.7347973 95.8052144,20.4740358 C95.533037,20.2132742 95.1882789,20.0828934 94.7890854,20.0828934 C94.3898918,20.0828934 94.0632789,20.2132742 93.7911015,20.4740358 Z M94.9026903,6.86425781 C94.2952014,6.86425781 93.8027344,7.35672484 93.8027344,7.96421369 L93.8027344,17.7363228 C93.8027344,18.3438117 94.2952014,18.8362787 94.9026903,18.8362787 C95.5101791,18.8362787 96.0026461,18.3438117 96.0026461,17.7363228 L96.0026461,7.96421369 C96.0026461,7.35672484 95.5101791,6.86425781 94.9026903,6.86425781 Z" id="Combined-Shape-Copy-7"></path>
                    </g>
                </g>
            </g>
        </g>
    </g>
</svg>
